<svg xmlns="http://www.w3.org/2000/svg" xmlns:xlink="http://www.w3.org/1999/xlink" zoomAndPan="magnify" viewBox="315 207 850 850" preserveAspectRatio="xMidYMid meet" version="1.0"><defs><clipPath id="7a0fc17745"><path d="M 652.148438 684.425781 L 804.808594 684.425781 L 804.808594 837.089844 L 652.148438 837.089844 Z M 652.148438 684.425781 " clip-rule="nonzero"/></clipPath><clipPath id="7327d37925"><path d="M 728.476562 684.425781 C 686.320312 684.425781 652.148438 718.601562 652.148438 760.757812 C 652.148438 802.914062 686.320312 837.089844 728.476562 837.089844 C 770.636719 837.089844 804.808594 802.914062 804.808594 760.757812 C 804.808594 718.601562 770.636719 684.425781 728.476562 684.425781 Z M 728.476562 684.425781 " clip-rule="nonzero"/></clipPath><clipPath id="d50a730ab9"><path d="M 0.148438 0.425781 L 152.808594 0.425781 L 152.808594 153.089844 L 0.148438 153.089844 Z M 0.148438 0.425781 " clip-rule="nonzero"/></clipPath><clipPath id="76aa250661"><path d="M 76.476562 0.425781 C 34.320312 0.425781 0.148438 34.601562 0.148438 76.757812 C 0.148438 118.914062 34.320312 153.089844 76.476562 153.089844 C 118.636719 153.089844 152.808594 118.914062 152.808594 76.757812 C 152.808594 34.601562 118.636719 0.425781 76.476562 0.425781 Z M 76.476562 0.425781 " clip-rule="nonzero"/></clipPath><clipPath id="881598225e"><rect x="0" width="153" y="0" height="154"/></clipPath><clipPath id="ea67f662c9"><path d="M 531.84375 639 L 924.84375 639 L 924.84375 868 L 531.84375 868 Z M 531.84375 639 " clip-rule="nonzero"/></clipPath><clipPath id="4152a494bf"><path d="M 560 659.476562 L 897 659.476562 L 897 846.976562 L 560 846.976562 Z M 560 659.476562 " clip-rule="nonzero"/></clipPath><clipPath id="a112e1a537"><path d="M 578 669.46875 L 879 669.46875 L 879 836.71875 L 578 836.71875 Z M 578 669.46875 " clip-rule="nonzero"/></clipPath><clipPath id="4ac7af1770"><path d="M 346.304688 391.511719 L 1133 391.511719 L 1133 812.261719 L 346.304688 812.261719 Z M 346.304688 391.511719 " clip-rule="nonzero"/></clipPath></defs><g clip-path="url(#7a0fc17745)"><g clip-path="url(#7327d37925)"><g transform="matrix(1, 0, 0, 1, 652, 684)"><g clip-path="url(#881598225e)"><g clip-path="url(#d50a730ab9)"><g clip-path="url(#76aa250661)"><path fill="#ffffff" d="M 0.148438 0.425781 L 152.808594 0.425781 L 152.808594 153.089844 L 0.148438 153.089844 Z M 0.148438 0.425781 " fill-opacity="1" fill-rule="nonzero"/></g></g></g></g></g></g><g clip-path="url(#ea67f662c9)"><path fill="#100f0d" d="M 728.34375 824.628906 C 689.105469 824.628906 657.296875 792.765625 657.296875 753.5 C 657.296875 714.214844 689.105469 682.371094 728.34375 682.371094 C 767.582031 682.371094 799.390625 714.214844 799.390625 753.5 C 799.390625 792.765625 767.582031 824.628906 728.34375 824.628906 Z M 728.34375 639.367188 C 728.34375 639.367188 619.945312 634.082031 531.84375 753.53125 C 619.945312 872.976562 728.34375 867.691406 728.34375 867.691406 C 728.34375 867.691406 836.742188 872.976562 924.84375 753.53125 C 836.742188 634.082031 728.34375 639.367188 728.34375 639.367188 " fill-opacity="1" fill-rule="nonzero"/></g><path fill="#100f0d" d="M 763.960938 753.53125 C 763.960938 773.21875 748.011719 789.1875 728.34375 789.1875 C 708.679688 789.1875 692.730469 773.21875 692.730469 753.53125 C 692.730469 733.839844 708.679688 717.871094 728.34375 717.871094 C 748.011719 717.871094 763.960938 733.839844 763.960938 753.53125 " fill-opacity="1" fill-rule="nonzero"/><path fill="#ffde59" d="M 728.464844 722.371094 C 711.429688 722.371094 697.570312 736.230469 697.570312 753.265625 C 697.570312 770.316406 711.429688 784.1875 728.464844 784.1875 C 745.511719 784.1875 759.386719 770.316406 759.386719 753.265625 C 759.386719 736.230469 745.511719 722.371094 728.464844 722.371094 " fill-opacity="1" fill-rule="nonzero"/><g clip-path="url(#4152a494bf)"><path fill="#ffde59" d="M 875.921875 755.226562 C 873.75 757.679688 832.238281 803.84375 775.664062 822.925781 C 797.503906 807.84375 811.847656 782.640625 811.847656 754.148438 C 811.847656 723.320312 795.066406 696.34375 770.152344 681.871094 C 829.527344 699.691406 873.679688 748.792969 875.929688 751.328125 L 877.65625 753.273438 Z M 581.011719 755.226562 L 579.28125 753.273438 L 580.988281 751.347656 C 583.242188 748.832031 627.269531 700.265625 685.953125 682.183594 C 661.339844 696.730469 644.789062 723.542969 644.789062 754.148438 C 644.789062 782.476562 658.964844 807.550781 680.59375 822.660156 C 624.453125 803.421875 583.179688 757.664062 581.011719 755.226562 Z M 728.316406 821.691406 C 691.074219 821.691406 660.777344 791.390625 660.777344 754.148438 C 660.777344 716.902344 691.074219 686.601562 728.316406 686.601562 C 765.5625 686.601562 795.859375 716.902344 795.859375 754.148438 C 795.859375 791.390625 765.5625 821.691406 728.316406 821.691406 Z M 894.328125 747.964844 L 887.890625 740.714844 C 884.949219 737.398438 814.875 659.484375 728.472656 659.484375 C 692.324219 659.484375 654.894531 672.773438 617.210938 698.984375 C 589.328125 718.378906 571.0625 738.464844 569.046875 740.714844 L 562.617188 747.972656 C 559.933594 750.996094 559.933594 755.550781 562.617188 758.578125 L 569.058594 765.839844 C 571.027344 768.054688 589.09375 788.023438 617.183594 807.566406 C 654.859375 833.777344 692.300781 847.066406 728.472656 847.066406 C 814.875 847.066406 884.949219 769.148438 887.882812 765.839844 L 894.328125 758.582031 C 897.015625 755.554688 897.015625 750.996094 894.328125 747.964844 " fill-opacity="1" fill-rule="nonzero"/></g><path fill="#000000" d="M 728.46875 725.664062 C 713.246094 725.664062 700.863281 738.046875 700.863281 753.265625 C 700.863281 768.503906 713.246094 780.898438 728.46875 780.898438 C 743.703125 780.898438 756.097656 768.503906 756.097656 753.265625 C 756.097656 738.046875 743.703125 725.664062 728.46875 725.664062 " fill-opacity="1" fill-rule="nonzero"/><g clip-path="url(#a112e1a537)"><path fill="#000000" d="M 860.222656 755.019531 C 858.277344 757.210938 821.191406 798.460938 770.640625 815.507812 C 790.15625 802.03125 802.972656 779.515625 802.972656 754.058594 C 802.972656 726.511719 787.976562 702.40625 765.71875 689.476562 C 818.769531 705.398438 858.21875 749.269531 860.226562 751.535156 L 861.769531 753.277344 Z M 596.722656 755.019531 L 595.175781 753.277344 L 596.699219 751.554688 C 598.710938 749.304688 638.050781 705.914062 690.484375 689.753906 C 668.492188 702.753906 653.703125 726.710938 653.703125 754.058594 C 653.703125 779.367188 666.371094 801.773438 685.699219 815.273438 C 635.535156 798.082031 598.65625 757.195312 596.722656 755.019531 Z M 728.335938 814.40625 C 695.0625 814.40625 667.988281 787.332031 667.988281 754.058594 C 667.988281 720.777344 695.0625 693.703125 728.335938 693.703125 C 761.617188 693.703125 788.6875 720.777344 788.6875 754.058594 C 788.6875 787.332031 761.617188 814.40625 728.335938 814.40625 Z M 876.664062 748.53125 L 870.914062 742.054688 C 868.285156 739.089844 805.675781 669.472656 728.476562 669.472656 C 696.179688 669.472656 662.734375 681.347656 629.066406 704.769531 C 604.152344 722.097656 587.832031 740.042969 586.03125 742.054688 L 580.285156 748.539062 C 577.886719 751.242188 577.886719 755.308594 580.285156 758.015625 L 586.039062 764.503906 C 587.796875 766.480469 603.941406 784.324219 629.039062 801.785156 C 662.703125 825.203125 696.15625 837.078125 728.476562 837.078125 C 805.675781 837.078125 868.285156 767.457031 870.90625 764.5 L 876.664062 758.019531 C 879.066406 755.3125 879.066406 751.238281 876.664062 748.53125 " fill-opacity="1" fill-rule="nonzero"/></g><g clip-path="url(#4ac7af1770)"><path fill="#000000" d="M 1018.121094 516.972656 C 1016.261719 521.378906 1013.398438 524.214844 1010.640625 527.007812 C 994.8125 543.050781 978.972656 559.074219 962.726562 574.714844 C 946.394531 590.441406 930.976562 607.121094 914.832031 623.050781 C 896.335938 641.304688 881.140625 662.574219 862.023438 680.230469 C 860.296875 681.824219 858.402344 685.164062 855.960938 682.882812 C 853.722656 680.785156 856.429688 678.128906 858.027344 676.425781 C 869.402344 664.320312 880.761719 652.195312 892.441406 640.386719 C 910.585938 622.042969 928.65625 603.648438 946.1875 584.699219 C 957.554688 572.417969 969.925781 561.058594 981.964844 549.410156 C 991.765625 539.925781 1001.734375 530.609375 1011.65625 521.25 C 1013.355469 519.644531 1014.859375 517.710938 1018.121094 516.972656 Z M 451.382812 537.03125 C 460.410156 546.472656 469.488281 555.859375 478.503906 565.3125 C 511.097656 599.484375 546.347656 630.945312 579.535156 664.515625 C 585.679688 670.730469 592.316406 676.496094 599.394531 681.683594 C 600.546875 682.527344 601.984375 683.769531 603.367188 682.433594 C 605.003906 680.84375 603.535156 679.308594 602.503906 678.195312 C 599.582031 675.039062 596.699219 671.789062 593.410156 669.046875 C 554.902344 636.960938 522.03125 598.992188 485.097656 565.253906 C 473.605469 554.757812 462.710938 543.617188 449.828125 533.75 C 449.777344 535.714844 450.707031 536.328125 451.382812 537.03125 Z M 1129.011719 803.792969 C 1107.375 803.113281 1085.742188 802.230469 1064.097656 801.839844 C 1042.730469 801.449219 1021.40625 802.707031 1000.097656 804.347656 C 980.558594 805.851562 960.957031 805.25 941.382812 805.589844 C 931.59375 805.761719 921.8125 806.175781 912.03125 806.59375 C 910.390625 806.664062 907.652344 806.160156 907.542969 808.277344 C 907.402344 810.953125 910.453125 810.300781 912.074219 810.515625 C 917.679688 811.25 923.339844 810.941406 928.953125 810.433594 C 954.09375 808.167969 979.261719 807.617188 1004.507812 808.117188 C 1045.449219 808.925781 1086.367188 807.015625 1127.296875 806.289062 C 1129.039062 806.257812 1130.886719 806.429688 1132.53125 805.023438 C 1131.410156 803.796875 1130.1875 803.832031 1129.011719 803.792969 Z M 728.171875 396.339844 C 727.191406 413.238281 726.804688 430.152344 726.828125 447.078125 C 726.875 480.921875 729.46875 514.6875 729.777344 548.519531 C 730 572.726562 728.921875 596.894531 728 621.070312 C 727.898438 623.722656 727.582031 626.421875 728.796875 628.957031 C 729.195312 629.792969 729.652344 630.585938 730.703125 630.523438 C 731.761719 630.460938 732.191406 629.601562 732.371094 628.71875 C 732.609375 627.5625 732.800781 626.375 732.828125 625.195312 C 733.132812 611.257812 733.574219 597.320312 733.636719 583.378906 C 733.738281 560.371094 732.597656 537.386719 731.902344 514.394531 C 731.121094 488.601562 731.351562 462.78125 731.03125 436.972656 C 730.84375 422 731.242188 407 729.585938 391.511719 C 728.210938 393.375 728.257812 394.875 728.171875 396.339844 Z M 1068.085938 672.332031 C 1023.683594 689.078125 979.25 705.75 934.917969 722.679688 C 923.007812 727.226562 911.394531 732.550781 899.679688 737.59375 C 898.003906 738.316406 895.496094 739.074219 896.472656 741.558594 C 897.40625 743.9375 899.554688 742.457031 901.128906 741.984375 C 907.089844 740.1875 913.015625 738.28125 918.761719 735.835938 C 965.441406 715.976562 1012.675781 697.492188 1059.796875 678.722656 C 1065.808594 676.328125 1071.707031 673.664062 1077.125 670.074219 C 1073.785156 669.90625 1070.964844 671.246094 1068.085938 672.332031 Z M 349.277344 806.398438 C 375.222656 807.140625 401.164062 808.191406 427.101562 808.882812 C 460.75 809.777344 494.4375 809.09375 528.042969 811.773438 C 534.84375 812.3125 541.699219 812.070312 548.445312 810.785156 C 550.085938 810.472656 552.492188 810.410156 552.402344 808.054688 C 552.308594 805.699219 549.90625 805.652344 548.257812 805.6875 C 537.578125 805.910156 526.910156 804.894531 516.226562 805.566406 C 499.78125 806.597656 483.28125 806.996094 466.867188 805.910156 C 432.488281 803.636719 398.101562 803.042969 363.683594 803.992188 C 358.042969 804.148438 352.28125 804.121094 346.757812 806.144531 C 347.597656 806.230469 348.433594 806.375 349.277344 806.398438 Z M 586.015625 484.316406 C 598.386719 510.804688 609.527344 537.828125 620.8125 564.785156 C 630.609375 588.183594 639.890625 611.792969 649.472656 635.28125 C 650.703125 638.289062 652.359375 641.128906 653.875 644.011719 C 654.441406 645.09375 655.257812 646.125 656.664062 645.640625 C 658.191406 645.121094 658.488281 643.765625 658.199219 642.355469 C 657.960938 641.203125 657.585938 640.054688 657.113281 638.976562 C 654.621094 633.265625 652.234375 627.5 649.523438 621.894531 C 635.621094 593.164062 623.179688 563.832031 612.332031 533.804688 C 605.875 515.9375 598.921875 498.25 588.910156 481.972656 C 587.699219 480.003906 586.6875 477.769531 584.089844 476.65625 C 583.519531 479.644531 584.925781 481.984375 586.015625 484.316406 Z M 402.492188 681.601562 C 429.214844 691.433594 456 701.097656 482.671875 711.058594 C 504.910156 719.367188 526.304688 729.710938 548.265625 738.699219 C 552.53125 740.449219 556.867188 741.945312 561.347656 743.011719 C 562.699219 743.332031 564.175781 743.320312 564.789062 741.785156 C 565.5 740.003906 564.300781 739.027344 562.84375 738.367188 C 562.039062 738 561.183594 737.730469 560.339844 737.453125 C 534.003906 728.726562 508.179688 718.679688 482.628906 707.851562 C 453 695.292969 423.171875 683.183594 392.179688 674.25 C 389.929688 673.601562 387.730469 672.574219 384.15625 673.316406 C 390.609375 677.199219 396.550781 679.417969 402.492188 681.601562 Z M 864.296875 467.148438 C 859.902344 476.570312 856.324219 486.324219 852.742188 496.066406 C 841.636719 526.265625 830.742188 556.546875 819.566406 586.71875 C 813.078125 604.238281 806.136719 621.589844 799.597656 639.089844 C 798.835938 641.117188 796.726562 644.496094 800.261719 645.609375 C 803.539062 646.644531 804.03125 642.976562 804.773438 640.742188 C 808.847656 628.5 812.417969 616.078125 816.835938 603.964844 C 830.867188 565.515625 845.246094 527.195312 859.371094 488.78125 C 862.523438 480.207031 866.027344 471.710938 867.933594 462.273438 C 865.578125 463.519531 865.089844 465.453125 864.296875 467.148438 Z M 904.710938 570.734375 C 889.820312 590.535156 876.394531 611.410156 860.742188 630.648438 C 853.148438 639.984375 846.429688 649.957031 839.417969 659.714844 C 838.003906 661.683594 835.027344 664.449219 837.835938 666.628906 C 840.820312 668.949219 842.414062 665.148438 843.910156 663.253906 C 846.753906 659.652344 849.382812 655.855469 851.84375 651.976562 C 860.1875 638.816406 868.402344 625.53125 878.222656 613.425781 C 890.671875 598.078125 902.058594 581.976562 913.324219 565.777344 C 915.894531 562.082031 918.765625 558.425781 919.40625 553.589844 C 913.636719 558.617188 909.222656 564.734375 904.710938 570.734375 Z M 426.015625 773.285156 C 461.683594 776.902344 497.328125 780.671875 532.71875 786.5625 C 538.238281 787.480469 543.792969 788.84375 549.464844 788.296875 C 551.074219 788.140625 553.496094 788.132812 553.363281 785.628906 C 553.257812 783.570312 551.144531 783.488281 549.585938 783.261719 C 542.546875 782.25 535.519531 781.066406 528.445312 780.425781 C 502.625 778.085938 476.9375 774.585938 451.183594 771.640625 C 438.351562 770.171875 425.554688 770.699219 412.75 771.667969 C 417.214844 772.257812 421.609375 772.839844 426.015625 773.285156 Z M 984.164062 605.222656 C 983.1875 605.871094 982.15625 606.457031 981.242188 607.183594 C 966.734375 618.742188 952.207031 630.277344 937.761719 641.910156 C 928.980469 648.984375 920.429688 656.355469 911.589844 663.351562 C 901.234375 671.546875 890.640625 679.449219 880.214844 687.554688 C 877.050781 690.015625 874.09375 692.738281 871.664062 695.96875 C 870.835938 697.074219 870.054688 698.265625 871.261719 699.542969 C 872.425781 700.773438 873.726562 700.222656 874.90625 699.503906 C 875.660156 699.042969 876.359375 698.476562 877.023438 697.886719 C 882.457031 693.054688 887.761719 688.070312 893.320312 683.390625 C 906.828125 672.011719 920.0625 660.265625 934.128906 649.617188 C 949.0625 638.304688 963.476562 626.457031 977.3125 613.855469 C 980.023438 611.386719 982.992188 609.199219 985.84375 606.882812 C 985.285156 606.328125 984.722656 605.777344 984.164062 605.222656 Z M 480.152344 624.914062 C 512.839844 649.996094 547.410156 672.515625 579.773438 698.042969 C 581.148438 699.125 582.789062 699.90625 584.390625 700.652344 C 585.617188 701.222656 587.113281 701.578125 587.925781 700.0625 C 588.78125 698.457031 587.410156 697.664062 586.316406 696.902344 C 582.058594 693.9375 577.824219 690.9375 573.523438 688.039062 C 549.664062 671.964844 527.59375 653.421875 503.683594 637.425781 C 495.117188 631.695312 486.980469 625.257812 476.671875 621.039062 C 477.621094 623.34375 479.003906 624.035156 480.152344 624.914062 Z M 536.867188 577.886719 C 551.816406 597.457031 569.015625 615.128906 584.414062 634.324219 C 593.132812 645.195312 602.011719 655.941406 611.003906 666.585938 C 612.425781 668.269531 614.507812 671.65625 617.015625 669.300781 C 619.328125 667.121094 616.019531 665.132812 614.625 663.523438 C 599.679688 646.261719 583.671875 629.851562 570.246094 611.367188 C 560.035156 597.3125 548.304688 584.992188 534.234375 573.601562 C 534.695312 575.945312 536.007812 576.765625 536.867188 577.886719 Z M 765.65625 520.265625 C 765 524.210938 764.105469 528.144531 763.828125 532.121094 C 761.703125 562.621094 757.457031 592.851562 752.457031 622.992188 C 752.167969 624.730469 752.148438 626.535156 752.195312 628.300781 C 752.226562 629.519531 752.707031 630.730469 754.15625 630.882812 C 755.605469 631.035156 756.3125 629.984375 756.601562 628.773438 C 757.289062 625.890625 758.105469 623.011719 758.441406 620.082031 C 761.679688 591.804688 764.894531 563.519531 767.128906 535.136719 C 767.539062 529.921875 767.527344 524.664062 766.785156 518.871094 C 766.121094 519.667969 765.710938 519.9375 765.65625 520.265625 Z M 685.917969 531.242188 C 687.628906 545.371094 690.875 559.25 692.945312 573.3125 C 695.296875 589.285156 697.242188 605.320312 699.40625 621.324219 C 699.703125 623.519531 700.121094 625.71875 700.71875 627.851562 C 701.175781 629.5 701.574219 631.722656 703.921875 631.433594 C 706.359375 631.132812 706.011719 628.90625 705.957031 627.179688 C 705.90625 625.707031 705.640625 624.238281 705.382812 622.78125 C 701.035156 597.976562 696.75 573.164062 692.261719 548.386719 C 690.984375 541.347656 690.125 534.132812 686.65625 527.164062 C 685.253906 528.933594 685.78125 530.109375 685.917969 531.242188 Z M 498.703125 685.339844 C 508.269531 690.375 517.871094 695.367188 527.625 700.027344 C 540.492188 706.167969 551.867188 714.945312 564.875 720.796875 C 567.03125 721.765625 569.140625 722.933594 571.601562 722.90625 C 572.648438 722.894531 573.773438 722.820312 574.140625 721.585938 C 574.480469 720.460938 573.984375 719.519531 573.03125 718.921875 C 570.652344 717.417969 568.324219 715.800781 565.820312 714.542969 C 544.253906 703.691406 522.671875 692.863281 501.03125 682.15625 C 498.21875 680.765625 495.328125 679.089844 491.621094 679.300781 C 493.003906 682.816406 496.078125 683.957031 498.703125 685.339844 Z M 796.8125 553.777344 C 794.203125 563.207031 791.183594 572.554688 789.191406 582.113281 C 785.890625 597.945312 780.152344 613.199219 778.144531 629.3125 C 777.824219 631.875 776.03125 635.898438 779.515625 636.707031 C 783.609375 637.65625 783.699219 633.039062 783.996094 630.457031 C 786.257812 610.761719 792.171875 591.878906 796.449219 572.636719 C 798.097656 565.214844 798.777344 557.65625 798.355469 549.847656 C 797.832031 551.15625 797.183594 552.429688 796.8125 553.777344 Z M 1036.484375 770.851562 C 1029.871094 771.574219 1023.214844 772.035156 1016.652344 773.0625 C 992.757812 776.8125 968.78125 779.710938 944.664062 781.582031 C 933.734375 782.429688 922.761719 783.199219 912 785.546875 C 910.207031 785.9375 907.328125 786.085938 907.613281 788.367188 C 907.960938 791.136719 910.777344 789.746094 912.429688 789.53125 C 925.8125 787.796875 939.148438 785.652344 952.550781 784.121094 C 975.53125 781.5 998.488281 778.722656 1021.339844 775.125 C 1026.496094 774.3125 1031.558594 772.882812 1036.664062 771.734375 C 1036.601562 771.441406 1036.542969 771.148438 1036.484375 770.851562 Z M 856.78125 577.132812 C 848.84375 590.863281 842.453125 605.414062 834.25 619.023438 C 829.210938 627.386719 825.027344 636.273438 820.488281 644.9375 C 819.523438 646.78125 818.679688 648.695312 818.535156 650.808594 C 818.457031 651.988281 818.355469 653.324219 819.796875 653.792969 C 821.011719 654.1875 821.785156 653.234375 822.296875 652.359375 C 824.09375 649.296875 825.964844 646.253906 827.496094 643.054688 C 835.675781 625.9375 843.554688 608.683594 853.398438 592.402344 C 856.75 586.859375 860.085938 581.175781 861.867188 574.820312 C 862.136719 573.847656 863.125 572.503906 860.921875 572.117188 C 858.953125 573.253906 857.886719 575.222656 856.78125 577.132812 Z M 651.335938 565.917969 C 657.648438 587.367188 663.96875 608.8125 670.328125 630.246094 C 671 632.511719 671.699219 634.800781 673.152344 636.734375 C 674.027344 637.902344 675.1875 638.574219 676.617188 637.90625 C 677.871094 637.320312 678.070312 636.054688 677.84375 634.847656 C 677.519531 633.105469 677.117188 631.363281 676.582031 629.675781 C 669.804688 608.203125 661.734375 587.191406 654.039062 566.046875 C 653.46875 564.484375 653.230469 562.546875 651.242188 561.730469 C 650.1875 563.214844 650.945312 564.585938 651.335938 565.917969 Z M 595.027344 593.261719 C 605.929688 609.726562 614.585938 627.535156 625.363281 644.070312 C 627.789062 647.792969 630.503906 651.328125 633.1875 654.878906 C 633.992188 655.945312 635.21875 656.945312 636.625 656.023438 C 638 655.125 637.660156 653.636719 637.050781 652.402344 C 636.335938 650.941406 635.496094 649.53125 634.574219 648.1875 C 622.59375 630.675781 611.5 612.597656 600.453125 594.488281 C 598.113281 590.652344 595.160156 587.4375 590.875 583.589844 C 591.894531 587.957031 593.339844 590.710938 595.027344 593.261719 Z M 481.910156 743.917969 C 481.460938 745.648438 483.40625 745.898438 484.503906 746.351562 C 486.824219 747.3125 489.210938 748.226562 491.660156 748.75 C 506.03125 751.824219 520.132812 755.855469 534.171875 760.179688 C 540.113281 762.007812 546.246094 763.238281 552.332031 764.546875 C 554.109375 764.925781 556.519531 765.417969 557.160156 762.8125 C 557.835938 760.074219 555.535156 759.253906 553.554688 758.617188 C 551.589844 757.984375 549.542969 757.53125 547.496094 757.214844 C 532.820312 754.933594 518.363281 751.726562 504.132812 747.453125 C 497.882812 745.578125 491.582031 743.882812 484.820312 743.074219 C 484.027344 743.582031 482.292969 742.453125 481.910156 743.917969 Z M 977.027344 748.710938 C 976.148438 748.710938 975.253906 748.597656 974.394531 748.726562 C 956.519531 751.441406 938.640625 754.15625 920.773438 756.941406 C 915.507812 757.761719 910.160156 758.328125 905.226562 760.546875 C 903.671875 761.246094 901.394531 761.929688 902.050781 764.167969 C 902.714844 766.421875 905.003906 765.726562 906.675781 765.453125 C 923.0625 762.746094 939.378906 759.683594 955.460938 755.492188 C 962.71875 753.601562 969.933594 751.539062 977.167969 749.554688 C 977.121094 749.273438 977.074219 748.992188 977.027344 748.710938 Z M 945.945312 687.695312 C 929.121094 696.082031 912.296875 704.460938 895.539062 712.976562 C 892.65625 714.441406 890.0625 716.484375 887.371094 718.3125 C 886.242188 719.082031 885.109375 720.097656 885.824219 721.601562 C 886.679688 723.402344 888.289062 722.785156 889.695312 722.316406 C 890.53125 722.035156 891.316406 721.601562 892.121094 721.222656 C 911.039062 712.292969 928.667969 701.09375 946.519531 690.285156 C 947.96875 689.410156 949.667969 688.597656 950.097656 686.566406 C 948.421875 686.015625 947.199219 687.070312 945.945312 687.695312 Z M 457.855469 738.875 C 457.832031 741.710938 459.609375 743.1875 462.351562 743.261719 C 464.761719 743.324219 466.359375 742.082031 466.351562 739.558594 C 466.34375 736.699219 464.445312 735.464844 461.949219 735.007812 C 459.445312 735.203125 457.878906 736.449219 457.855469 738.875 Z M 476.429688 666.667969 C 474.046875 666.738281 472.480469 668.238281 472.570312 670.65625 C 472.660156 673.222656 474.308594 674.734375 476.910156 674.726562 C 479.410156 674.714844 480.570312 673.140625 480.769531 670.625 C 480.464844 668.152344 479.035156 666.589844 476.429688 666.667969 Z M 804.046875 527.46875 C 801.691406 527.5 800.359375 529.300781 800.175781 531.527344 C 799.964844 534.054688 801.246094 535.898438 803.902344 535.964844 C 806.339844 536.03125 807.503906 534.351562 807.765625 531.867188 C 807.460938 529.710938 806.863281 527.425781 804.046875 527.46875 Z M 1018.78125 734.898438 C 1016.28125 735.078125 1014.53125 736.375 1014.617188 739.050781 C 1014.699219 741.566406 1016.445312 742.652344 1018.800781 742.519531 C 1021.3125 742.378906 1022.867188 741.042969 1023.027344 738.230469 C 1022.632812 735.949219 1021.183594 734.730469 1018.78125 734.898438 Z M 811.292969 504.96875 C 808.5625 505.160156 807.113281 507.03125 807.136719 509.722656 C 807.15625 511.972656 808.589844 513.289062 810.796875 513.25 C 813.570312 513.195312 814.441406 511.238281 814.597656 508.535156 C 814.335938 506.761719 813.757812 504.792969 811.292969 504.96875 Z M 969.207031 677.042969 C 969.191406 674.789062 967.761719 673.5 965.515625 673.542969 C 963.148438 673.589844 961.476562 674.84375 961.605469 677.339844 C 961.71875 679.582031 963.378906 680.566406 965.546875 680.707031 C 967.695312 680.40625 969.21875 679.3125 969.207031 677.042969 Z M 638.03125 528.082031 C 637.984375 530.277344 639.101562 531.847656 641.351562 532.015625 C 643.761719 532.195312 645.285156 530.863281 645.46875 528.414062 C 645.65625 525.957031 644.292969 524.597656 641.746094 524.121094 C 639.585938 524.429688 638.085938 525.625 638.03125 528.082031 Z M 578.328125 571.050781 C 578.40625 573.519531 579.914062 574.832031 582.300781 574.816406 C 584.386719 574.800781 585.5625 573.441406 585.511719 571.394531 C 585.449219 568.953125 583.941406 567.738281 581.601562 567.546875 C 579.554688 567.875 578.265625 568.949219 578.328125 571.050781 Z M 992.996094 744.183594 C 992.988281 746.210938 994.222656 747.476562 996.292969 747.519531 C 998.53125 747.566406 999.921875 746.296875 1000.078125 744.101562 C 1000.234375 741.902344 998.667969 741.09375 996.707031 740.800781 C 994.574219 740.910156 993 741.84375 992.996094 744.183594 Z M 440.484375 730.546875 C 438.402344 730.707031 437.207031 731.960938 437.375 734.058594 C 437.546875 736.175781 439.027344 737.109375 441.039062 737.085938 C 443.125 737.0625 444.296875 735.949219 444.421875 733.835938 C 444.058594 731.574219 442.765625 730.375 440.484375 730.546875 Z M 983.746094 663.996094 C 981.492188 664.023438 980.070312 665.304688 980.195312 667.621094 C 980.296875 669.53125 981.65625 670.507812 983.527344 670.453125 C 985.636719 670.390625 986.699219 669.109375 986.898438 667.082031 C 986.679688 665.171875 985.652344 663.972656 983.746094 663.996094 Z M 646.378906 542.664062 C 644.308594 542.753906 643.160156 544.058594 643.203125 546.128906 C 643.242188 548.039062 644.390625 549.132812 646.285156 549.148438 C 648.359375 549.167969 649.496094 547.976562 649.800781 545.722656 C 649.488281 543.949219 648.503906 542.570312 646.378906 542.664062 Z M 867.328125 555.726562 C 865.464844 555.746094 864.222656 556.710938 864.09375 558.667969 C 863.964844 560.609375 865.011719 561.851562 866.894531 561.972656 C 868.996094 562.101562 870.113281 560.789062 870.476562 558.636719 C 870.226562 556.90625 869.285156 555.707031 867.328125 555.726562 Z M 867.328125 555.726562 " fill-opacity="1" fill-rule="nonzero"/><path fill="#000000" d="M 1018.121094 516.972656 C 1016.261719 521.378906 1013.398438 524.214844 1010.640625 527.007812 C 994.8125 543.050781 978.972656 559.074219 962.726562 574.714844 C 946.394531 590.441406 930.976562 607.121094 914.832031 623.050781 C 896.335938 641.304688 881.140625 662.574219 862.023438 680.230469 C 860.296875 681.824219 858.402344 685.164062 855.960938 682.882812 C 853.722656 680.785156 856.429688 678.128906 858.027344 676.425781 C 869.402344 664.320312 880.761719 652.195312 892.441406 640.386719 C 910.585938 622.042969 928.65625 603.648438 946.1875 584.699219 C 957.554688 572.417969 969.925781 561.058594 981.964844 549.410156 C 991.765625 539.925781 1001.734375 530.609375 1011.65625 521.25 C 1013.355469 519.644531 1014.859375 517.710938 1018.121094 516.972656 Z M 451.382812 537.03125 C 460.410156 546.472656 469.488281 555.859375 478.503906 565.3125 C 511.097656 599.484375 546.347656 630.945312 579.535156 664.515625 C 585.679688 670.730469 592.316406 676.496094 599.394531 681.683594 C 600.546875 682.527344 601.984375 683.769531 603.367188 682.433594 C 605.003906 680.84375 603.535156 679.308594 602.503906 678.195312 C 599.582031 675.039062 596.699219 671.789062 593.410156 669.046875 C 554.902344 636.960938 522.03125 598.992188 485.097656 565.253906 C 473.605469 554.757812 462.710938 543.617188 449.828125 533.75 C 449.777344 535.714844 450.707031 536.328125 451.382812 537.03125 Z M 1129.011719 803.792969 C 1107.375 803.113281 1085.742188 802.230469 1064.097656 801.839844 C 1042.730469 801.449219 1021.40625 802.707031 1000.097656 804.347656 C 980.558594 805.851562 960.957031 805.25 941.382812 805.589844 C 931.59375 805.761719 921.8125 806.175781 912.03125 806.59375 C 910.390625 806.664062 907.652344 806.160156 907.542969 808.277344 C 907.402344 810.953125 910.453125 810.300781 912.074219 810.515625 C 917.679688 811.25 923.339844 810.941406 928.953125 810.433594 C 954.09375 808.167969 979.261719 807.617188 1004.507812 808.117188 C 1045.449219 808.925781 1086.367188 807.015625 1127.296875 806.289062 C 1129.039062 806.257812 1130.886719 806.429688 1132.53125 805.023438 C 1131.410156 803.796875 1130.1875 803.832031 1129.011719 803.792969 Z M 728.171875 396.339844 C 727.191406 413.238281 726.804688 430.152344 726.828125 447.078125 C 726.875 480.921875 729.46875 514.6875 729.777344 548.519531 C 730 572.726562 728.921875 596.894531 728 621.070312 C 727.898438 623.722656 727.582031 626.421875 728.796875 628.957031 C 729.195312 629.792969 729.652344 630.585938 730.703125 630.523438 C 731.761719 630.460938 732.191406 629.601562 732.371094 628.71875 C 732.609375 627.5625 732.800781 626.375 732.828125 625.195312 C 733.132812 611.257812 733.574219 597.320312 733.636719 583.378906 C 733.738281 560.371094 732.597656 537.386719 731.902344 514.394531 C 731.121094 488.601562 731.351562 462.78125 731.03125 436.972656 C 730.84375 422 731.242188 407 729.585938 391.511719 C 728.210938 393.375 728.257812 394.875 728.171875 396.339844 Z M 1068.085938 672.332031 C 1023.683594 689.078125 979.25 705.75 934.917969 722.679688 C 923.007812 727.226562 911.394531 732.550781 899.679688 737.59375 C 898.003906 738.316406 895.496094 739.074219 896.472656 741.558594 C 897.40625 743.9375 899.554688 742.457031 901.128906 741.984375 C 907.089844 740.1875 913.015625 738.28125 918.761719 735.835938 C 965.441406 715.976562 1012.675781 697.492188 1059.796875 678.722656 C 1065.808594 676.328125 1071.707031 673.664062 1077.125 670.074219 C 1073.785156 669.90625 1070.964844 671.246094 1068.085938 672.332031 Z M 349.277344 806.398438 C 375.222656 807.140625 401.164062 808.191406 427.101562 808.882812 C 460.75 809.777344 494.4375 809.09375 528.042969 811.773438 C 534.84375 812.3125 541.699219 812.070312 548.445312 810.785156 C 550.085938 810.472656 552.492188 810.410156 552.402344 808.054688 C 552.308594 805.699219 549.90625 805.652344 548.257812 805.6875 C 537.578125 805.910156 526.910156 804.894531 516.226562 805.566406 C 499.78125 806.597656 483.28125 806.996094 466.867188 805.910156 C 432.488281 803.636719 398.101562 803.042969 363.683594 803.992188 C 358.042969 804.148438 352.28125 804.121094 346.757812 806.144531 C 347.597656 806.230469 348.433594 806.375 349.277344 806.398438 Z M 586.015625 484.316406 C 598.386719 510.804688 609.527344 537.828125 620.8125 564.785156 C 630.609375 588.183594 639.890625 611.792969 649.472656 635.28125 C 650.703125 638.289062 652.359375 641.128906 653.875 644.011719 C 654.441406 645.09375 655.257812 646.125 656.664062 645.640625 C 658.191406 645.121094 658.488281 643.765625 658.199219 642.355469 C 657.960938 641.203125 657.585938 640.054688 657.113281 638.976562 C 654.621094 633.265625 652.234375 627.5 649.523438 621.894531 C 635.621094 593.164062 623.179688 563.832031 612.332031 533.804688 C 605.875 515.9375 598.921875 498.25 588.910156 481.972656 C 587.699219 480.003906 586.6875 477.769531 584.089844 476.65625 C 583.519531 479.644531 584.925781 481.984375 586.015625 484.316406 Z M 402.492188 681.601562 C 429.214844 691.433594 456 701.097656 482.671875 711.058594 C 504.910156 719.367188 526.304688 729.710938 548.265625 738.699219 C 552.53125 740.449219 556.867188 741.945312 561.347656 743.011719 C 562.699219 743.332031 564.175781 743.320312 564.789062 741.785156 C 565.5 740.003906 564.300781 739.027344 562.84375 738.367188 C 562.039062 738 561.183594 737.730469 560.339844 737.453125 C 534.003906 728.726562 508.179688 718.679688 482.628906 707.851562 C 453 695.292969 423.171875 683.183594 392.179688 674.25 C 389.929688 673.601562 387.730469 672.574219 384.15625 673.316406 C 390.609375 677.199219 396.550781 679.417969 402.492188 681.601562 Z M 864.296875 467.148438 C 859.902344 476.570312 856.324219 486.324219 852.742188 496.066406 C 841.636719 526.265625 830.742188 556.546875 819.566406 586.71875 C 813.078125 604.238281 806.136719 621.589844 799.597656 639.089844 C 798.835938 641.117188 796.726562 644.496094 800.261719 645.609375 C 803.539062 646.644531 804.03125 642.976562 804.773438 640.742188 C 808.847656 628.5 812.417969 616.078125 816.835938 603.964844 C 830.867188 565.515625 845.246094 527.195312 859.371094 488.78125 C 862.523438 480.207031 866.027344 471.710938 867.933594 462.273438 C 865.578125 463.519531 865.089844 465.453125 864.296875 467.148438 Z M 904.710938 570.734375 C 889.820312 590.535156 876.394531 611.410156 860.742188 630.648438 C 853.148438 639.984375 846.429688 649.957031 839.417969 659.714844 C 838.003906 661.683594 835.027344 664.449219 837.835938 666.628906 C 840.820312 668.949219 842.414062 665.148438 843.910156 663.253906 C 846.753906 659.652344 849.382812 655.855469 851.84375 651.976562 C 860.1875 638.816406 868.402344 625.53125 878.222656 613.425781 C 890.671875 598.078125 902.058594 581.976562 913.324219 565.777344 C 915.894531 562.082031 918.765625 558.425781 919.40625 553.589844 C 913.636719 558.617188 909.222656 564.734375 904.710938 570.734375 Z M 426.015625 773.285156 C 461.683594 776.902344 497.328125 780.671875 532.71875 786.5625 C 538.238281 787.480469 543.792969 788.84375 549.464844 788.296875 C 551.074219 788.140625 553.496094 788.132812 553.363281 785.628906 C 553.257812 783.570312 551.144531 783.488281 549.585938 783.261719 C 542.546875 782.25 535.519531 781.066406 528.445312 780.425781 C 502.625 778.085938 476.9375 774.585938 451.183594 771.640625 C 438.351562 770.171875 425.554688 770.699219 412.75 771.667969 C 417.214844 772.257812 421.609375 772.839844 426.015625 773.285156 Z M 984.164062 605.222656 C 983.1875 605.871094 982.15625 606.457031 981.242188 607.183594 C 966.734375 618.742188 952.207031 630.277344 937.761719 641.910156 C 928.980469 648.984375 920.429688 656.355469 911.589844 663.351562 C 901.234375 671.546875 890.640625 679.449219 880.214844 687.554688 C 877.050781 690.015625 874.09375 692.738281 871.664062 695.96875 C 870.835938 697.074219 870.054688 698.265625 871.261719 699.542969 C 872.425781 700.773438 873.726562 700.222656 874.90625 699.503906 C 875.660156 699.042969 876.359375 698.476562 877.023438 697.886719 C 882.457031 693.054688 887.761719 688.070312 893.320312 683.390625 C 906.828125 672.011719 920.0625 660.265625 934.128906 649.617188 C 949.0625 638.304688 963.476562 626.457031 977.3125 613.855469 C 980.023438 611.386719 982.992188 609.199219 985.84375 606.882812 C 985.285156 606.328125 984.722656 605.777344 984.164062 605.222656 Z M 480.152344 624.914062 C 512.839844 649.996094 547.410156 672.515625 579.773438 698.042969 C 581.148438 699.125 582.789062 699.90625 584.390625 700.652344 C 585.617188 701.222656 587.113281 701.578125 587.925781 700.0625 C 588.78125 698.457031 587.410156 697.664062 586.316406 696.902344 C 582.058594 693.9375 577.824219 690.9375 573.523438 688.039062 C 549.664062 671.964844 527.59375 653.421875 503.683594 637.425781 C 495.117188 631.695312 486.980469 625.257812 476.671875 621.039062 C 477.621094 623.34375 479.003906 624.035156 480.152344 624.914062 Z M 536.867188 577.886719 C 551.816406 597.457031 569.015625 615.128906 584.414062 634.324219 C 593.132812 645.195312 602.011719 655.941406 611.003906 666.585938 C 612.425781 668.269531 614.507812 671.65625 617.015625 669.300781 C 619.328125 667.121094 616.019531 665.132812 614.625 663.523438 C 599.679688 646.261719 583.671875 629.851562 570.246094 611.367188 C 560.035156 597.3125 548.304688 584.992188 534.234375 573.601562 C 534.695312 575.945312 536.007812 576.765625 536.867188 577.886719 Z M 765.65625 520.265625 C 765 524.210938 764.105469 528.144531 763.828125 532.121094 C 761.703125 562.621094 757.457031 592.851562 752.457031 622.992188 C 752.167969 624.730469 752.148438 626.535156 752.195312 628.300781 C 752.226562 629.519531 752.707031 630.730469 754.15625 630.882812 C 755.605469 631.035156 756.3125 629.984375 756.601562 628.773438 C 757.289062 625.890625 758.105469 623.011719 758.441406 620.082031 C 761.679688 591.804688 764.894531 563.519531 767.128906 535.136719 C 767.539062 529.921875 767.527344 524.664062 766.785156 518.871094 C 766.121094 519.667969 765.710938 519.9375 765.65625 520.265625 Z M 685.917969 531.242188 C 687.628906 545.371094 690.875 559.25 692.945312 573.3125 C 695.296875 589.285156 697.242188 605.320312 699.40625 621.324219 C 699.703125 623.519531 700.121094 625.71875 700.71875 627.851562 C 701.175781 629.5 701.574219 631.722656 703.921875 631.433594 C 706.359375 631.132812 706.011719 628.90625 705.957031 627.179688 C 705.90625 625.707031 705.640625 624.238281 705.382812 622.78125 C 701.035156 597.976562 696.75 573.164062 692.261719 548.386719 C 690.984375 541.347656 690.125 534.132812 686.65625 527.164062 C 685.253906 528.933594 685.78125 530.109375 685.917969 531.242188 Z M 498.703125 685.339844 C 508.269531 690.375 517.871094 695.367188 527.625 700.027344 C 540.492188 706.167969 551.867188 714.945312 564.875 720.796875 C 567.03125 721.765625 569.140625 722.933594 571.601562 722.90625 C 572.648438 722.894531 573.773438 722.820312 574.140625 721.585938 C 574.480469 720.460938 573.984375 719.519531 573.03125 718.921875 C 570.652344 717.417969 568.324219 715.800781 565.820312 714.542969 C 544.253906 703.691406 522.671875 692.863281 501.03125 682.15625 C 498.21875 680.765625 495.328125 679.089844 491.621094 679.300781 C 493.003906 682.816406 496.078125 683.957031 498.703125 685.339844 Z M 796.8125 553.777344 C 794.203125 563.207031 791.183594 572.554688 789.191406 582.113281 C 785.890625 597.945312 780.152344 613.199219 778.144531 629.3125 C 777.824219 631.875 776.03125 635.898438 779.515625 636.707031 C 783.609375 637.65625 783.699219 633.039062 783.996094 630.457031 C 786.257812 610.761719 792.171875 591.878906 796.449219 572.636719 C 798.097656 565.214844 798.777344 557.65625 798.355469 549.847656 C 797.832031 551.15625 797.183594 552.429688 796.8125 553.777344 Z M 1036.484375 770.851562 C 1029.871094 771.574219 1023.214844 772.035156 1016.652344 773.0625 C 992.757812 776.8125 968.78125 779.710938 944.664062 781.582031 C 933.734375 782.429688 922.761719 783.199219 912 785.546875 C 910.207031 785.9375 907.328125 786.085938 907.613281 788.367188 C 907.960938 791.136719 910.777344 789.746094 912.429688 789.53125 C 925.8125 787.796875 939.148438 785.652344 952.550781 784.121094 C 975.53125 781.5 998.488281 778.722656 1021.339844 775.125 C 1026.496094 774.3125 1031.558594 772.882812 1036.664062 771.734375 C 1036.601562 771.441406 1036.542969 771.148438 1036.484375 770.851562 Z M 856.78125 577.132812 C 848.84375 590.863281 842.453125 605.414062 834.25 619.023438 C 829.210938 627.386719 825.027344 636.273438 820.488281 644.9375 C 819.523438 646.78125 818.679688 648.695312 818.535156 650.808594 C 818.457031 651.988281 818.355469 653.324219 819.796875 653.792969 C 821.011719 654.1875 821.785156 653.234375 822.296875 652.359375 C 824.09375 649.296875 825.964844 646.253906 827.496094 643.054688 C 835.675781 625.9375 843.554688 608.683594 853.398438 592.402344 C 856.75 586.859375 860.085938 581.175781 861.867188 574.820312 C 862.136719 573.847656 863.125 572.503906 860.921875 572.117188 C 858.953125 573.253906 857.886719 575.222656 856.78125 577.132812 Z M 651.335938 565.917969 C 657.648438 587.367188 663.96875 608.8125 670.328125 630.246094 C 671 632.511719 671.699219 634.800781 673.152344 636.734375 C 674.027344 637.902344 675.1875 638.574219 676.617188 637.90625 C 677.871094 637.320312 678.070312 636.054688 677.84375 634.847656 C 677.519531 633.105469 677.117188 631.363281 676.582031 629.675781 C 669.804688 608.203125 661.734375 587.191406 654.039062 566.046875 C 653.46875 564.484375 653.230469 562.546875 651.242188 561.730469 C 650.1875 563.214844 650.945312 564.585938 651.335938 565.917969 Z M 595.027344 593.261719 C 605.929688 609.726562 614.585938 627.535156 625.363281 644.070312 C 627.789062 647.792969 630.503906 651.328125 633.1875 654.878906 C 633.992188 655.945312 635.21875 656.945312 636.625 656.023438 C 638 655.125 637.660156 653.636719 637.050781 652.402344 C 636.335938 650.941406 635.496094 649.53125 634.574219 648.1875 C 622.59375 630.675781 611.5 612.597656 600.453125 594.488281 C 598.113281 590.652344 595.160156 587.4375 590.875 583.589844 C 591.894531 587.957031 593.339844 590.710938 595.027344 593.261719 Z M 481.910156 743.917969 C 481.460938 745.648438 483.40625 745.898438 484.503906 746.351562 C 486.824219 747.3125 489.210938 748.226562 491.660156 748.75 C 506.03125 751.824219 520.132812 755.855469 534.171875 760.179688 C 540.113281 762.007812 546.246094 763.238281 552.332031 764.546875 C 554.109375 764.925781 556.519531 765.417969 557.160156 762.8125 C 557.835938 760.074219 555.535156 759.253906 553.554688 758.617188 C 551.589844 757.984375 549.542969 757.53125 547.496094 757.214844 C 532.820312 754.933594 518.363281 751.726562 504.132812 747.453125 C 497.882812 745.578125 491.582031 743.882812 484.820312 743.074219 C 484.027344 743.582031 482.292969 742.453125 481.910156 743.917969 Z M 977.027344 748.710938 C 976.148438 748.710938 975.253906 748.597656 974.394531 748.726562 C 956.519531 751.441406 938.640625 754.15625 920.773438 756.941406 C 915.507812 757.761719 910.160156 758.328125 905.226562 760.546875 C 903.671875 761.246094 901.394531 761.929688 902.050781 764.167969 C 902.714844 766.421875 905.003906 765.726562 906.675781 765.453125 C 923.0625 762.746094 939.378906 759.683594 955.460938 755.492188 C 962.71875 753.601562 969.933594 751.539062 977.167969 749.554688 C 977.121094 749.273438 977.074219 748.992188 977.027344 748.710938 Z M 945.945312 687.695312 C 929.121094 696.082031 912.296875 704.460938 895.539062 712.976562 C 892.65625 714.441406 890.0625 716.484375 887.371094 718.3125 C 886.242188 719.082031 885.109375 720.097656 885.824219 721.601562 C 886.679688 723.402344 888.289062 722.785156 889.695312 722.316406 C 890.53125 722.035156 891.316406 721.601562 892.121094 721.222656 C 911.039062 712.292969 928.667969 701.09375 946.519531 690.285156 C 947.96875 689.410156 949.667969 688.597656 950.097656 686.566406 C 948.421875 686.015625 947.199219 687.070312 945.945312 687.695312 Z M 457.855469 738.875 C 457.832031 741.710938 459.609375 743.1875 462.351562 743.261719 C 464.761719 743.324219 466.359375 742.082031 466.351562 739.558594 C 466.34375 736.699219 464.445312 735.464844 461.949219 735.007812 C 459.445312 735.203125 457.878906 736.449219 457.855469 738.875 Z M 476.429688 666.667969 C 474.046875 666.738281 472.480469 668.238281 472.570312 670.65625 C 472.660156 673.222656 474.308594 674.734375 476.910156 674.726562 C 479.410156 674.714844 480.570312 673.140625 480.769531 670.625 C 480.464844 668.152344 479.035156 666.589844 476.429688 666.667969 Z M 804.046875 527.46875 C 801.691406 527.5 800.359375 529.300781 800.175781 531.527344 C 799.964844 534.054688 801.246094 535.898438 803.902344 535.964844 C 806.339844 536.03125 807.503906 534.351562 807.765625 531.867188 C 807.460938 529.710938 806.863281 527.425781 804.046875 527.46875 Z M 1018.78125 734.898438 C 1016.28125 735.078125 1014.53125 736.375 1014.617188 739.050781 C 1014.699219 741.566406 1016.445312 742.652344 1018.800781 742.519531 C 1021.3125 742.378906 1022.867188 741.042969 1023.027344 738.230469 C 1022.632812 735.949219 1021.183594 734.730469 1018.78125 734.898438 Z M 811.292969 504.96875 C 808.5625 505.160156 807.113281 507.03125 807.136719 509.722656 C 807.15625 511.972656 808.589844 513.289062 810.796875 513.25 C 813.570312 513.195312 814.441406 511.238281 814.597656 508.535156 C 814.335938 506.761719 813.757812 504.792969 811.292969 504.96875 Z M 969.207031 677.042969 C 969.191406 674.789062 967.761719 673.5 965.515625 673.542969 C 963.148438 673.589844 961.476562 674.84375 961.605469 677.339844 C 961.71875 679.582031 963.378906 680.566406 965.546875 680.707031 C 967.695312 680.40625 969.21875 679.3125 969.207031 677.042969 Z M 638.03125 528.082031 C 637.984375 530.277344 639.101562 531.847656 641.351562 532.015625 C 643.761719 532.195312 645.285156 530.863281 645.46875 528.414062 C 645.65625 525.957031 644.292969 524.597656 641.746094 524.121094 C 639.585938 524.429688 638.085938 525.625 638.03125 528.082031 Z M 578.328125 571.050781 C 578.40625 573.519531 579.914062 574.832031 582.300781 574.816406 C 584.386719 574.800781 585.5625 573.441406 585.511719 571.394531 C 585.449219 568.953125 583.941406 567.738281 581.601562 567.546875 C 579.554688 567.875 578.265625 568.949219 578.328125 571.050781 Z M 992.996094 744.183594 C 992.988281 746.210938 994.222656 747.476562 996.292969 747.519531 C 998.53125 747.566406 999.921875 746.296875 1000.078125 744.101562 C 1000.234375 741.902344 998.667969 741.09375 996.707031 740.800781 C 994.574219 740.910156 993 741.84375 992.996094 744.183594 Z M 440.484375 730.546875 C 438.402344 730.707031 437.207031 731.960938 437.375 734.058594 C 437.546875 736.175781 439.027344 737.109375 441.039062 737.085938 C 443.125 737.0625 444.296875 735.949219 444.421875 733.835938 C 444.058594 731.574219 442.765625 730.375 440.484375 730.546875 Z M 983.746094 663.996094 C 981.492188 664.023438 980.070312 665.304688 980.195312 667.621094 C 980.296875 669.53125 981.65625 670.507812 983.527344 670.453125 C 985.636719 670.390625 986.699219 669.109375 986.898438 667.082031 C 986.679688 665.171875 985.652344 663.972656 983.746094 663.996094 Z M 646.378906 542.664062 C 644.308594 542.753906 643.160156 544.058594 643.203125 546.128906 C 643.242188 548.039062 644.390625 549.132812 646.285156 549.148438 C 648.359375 549.167969 649.496094 547.976562 649.800781 545.722656 C 649.488281 543.949219 648.503906 542.570312 646.378906 542.664062 Z M 867.328125 555.726562 C 865.464844 555.746094 864.222656 556.710938 864.09375 558.667969 C 863.964844 560.609375 865.011719 561.851562 866.894531 561.972656 C 868.996094 562.101562 870.113281 560.789062 870.476562 558.636719 C 870.226562 556.90625 869.285156 555.707031 867.328125 555.726562 Z M 867.328125 555.726562 " fill-opacity="1" fill-rule="nonzero"/></g></svg>